<?xml version="1.0" encoding="UTF-8"?>
<svg version="1.1" xmlns="http://www.w3.org/2000/svg" width="447" height="447">
<path d="M0 0 C147.51 0 295.02 0 447 0 C447 147.51 447 295.02 447 447 C299.49 447 151.98 447 0 447 C0 299.49 0 151.98 0 0 Z " fill="#010101" transform="translate(0,0)"/>
<path d="M0 0 C147.51 0 295.02 0 447 0 C447 147.51 447 295.02 447 447 C299.49 447 151.98 447 0 447 C0 299.49 0 151.98 0 0 Z M137.36303711 86.4519043 C136.33699906 86.49101583 135.31096102 86.53012735 134.25383091 86.57042408 C127.56017927 86.85615937 121.0386336 87.51820609 114.40625 88.47265625 C109.68065075 89.09843604 104.93801009 89.35369206 100.18237305 89.65014648 C90.95168529 90.23359741 81.85926066 90.87474046 72.8125 92.875 C72.12559082 93.02437012 71.43868164 93.17374023 70.73095703 93.32763672 C57.56843979 96.52897586 46.12659425 105.57792428 39 117 C34.79823262 124.62845146 33.65310397 133.14143322 32.36328125 141.63867188 C32.00357374 143.97677069 31.61302848 146.30813597 31.21875 148.640625 C23.38985211 196.64003562 24.57533071 247.92739045 31 296 C31.16016602 297.21187988 31.32033203 298.42375977 31.48535156 299.67236328 C34.40607236 320.62900008 40.75711685 335.81296211 58 349 C76.47261604 358.26080751 99.43873315 357.84842706 119.59899902 358.87567139 C122.07837956 359.00405865 124.55722785 359.14058773 127.03613281 359.27783203 C201.36760842 363.30895385 276.85551448 362.94427511 351.0625 357.0625 C352.0898526 356.98318237 353.1172052 356.90386475 354.1756897 356.82214355 C357.04697276 356.59523666 359.91602763 356.35020773 362.78515625 356.09765625 C363.62081116 356.03197952 364.45646606 355.9663028 365.31744385 355.89863586 C370.45588533 355.41605106 374.34975657 354.24541483 379 352 C380.62402586 351.41396009 382.24893134 350.83034774 383.875 350.25 C394.8761232 345.83288235 403.90513656 336.85027605 409.1875 326.3125 C413.97101821 314.15872411 415.31183736 300.88033003 417 288 C417.16661133 286.75331543 417.33322266 285.50663086 417.50488281 284.22216797 C420.01539463 264.39016415 420.28348888 244.59571277 420.3125 224.625 C420.31617584 223.40461029 420.31985168 222.18422058 420.32363892 220.92684937 C420.34440166 207.72985069 420.00019568 194.75493045 418.49682617 181.64160156 C417.96725552 176.9562706 417.67161216 172.27478173 417.4375 167.56640625 C417.39944748 166.81607117 417.36139496 166.06573608 417.32218933 165.29266357 C417.17272211 162.27281472 417.03094818 159.25268783 416.89550781 156.23217773 C416.79198247 153.96815452 416.6778694 151.70485228 416.5625 149.44140625 C416.50191406 148.12857666 416.44132812 146.81574707 416.37890625 145.46313477 C416.02483108 142.22695158 415.33915224 139.93599831 414 137 C413.69352801 135.46502061 413.42298314 133.92246066 413.1875 132.375 C410.73716497 119.68980404 404.1733176 109.55056209 393.625 102.1875 C388.66770025 98.85454615 383.62899084 96.02308237 378 94 C377.15477783 93.67507568 376.30955566 93.35015137 375.4387207 93.01538086 C351.71960404 86.01163175 322.66143296 87.74022796 298.08203125 86.88671875 C296.90248304 86.8447254 295.72293484 86.80273205 294.50764275 86.75946617 C266.79786713 85.79354578 239.09870324 85.72973674 211.37524414 85.80438232 C206.22233075 85.81535334 201.06944319 85.81484571 195.91652012 85.81424427 C190.84322899 85.8145185 185.76995424 85.82003551 180.69666862 85.82724571 C178.33095357 85.83036428 175.96523672 85.83238323 173.59951973 85.83313942 C161.51148985 85.84127241 149.44289995 85.98443689 137.36303711 86.4519043 Z " fill="#FEFEFE" transform="translate(0,0)"/>
<path d="M0 0 C3.42399227 1.36959691 6.21361214 2.59630428 9.328125 4.42578125 C10.12863281 4.89306641 10.92914063 5.36035156 11.75390625 5.84179688 C12.57761719 6.32712891 13.40132812 6.81246094 14.25 7.3125 C18.99786997 10.09534245 23.74306414 12.87367238 28.5625 15.53125 C33.7665115 18.40417919 38.86224384 21.45229077 43.95703125 24.51367188 C47.56016452 26.65528013 51.02769492 28.60030982 55 30 C55 30.66 55 31.32 55 32 C56.01126953 32.38285156 56.01126953 32.38285156 57.04296875 32.7734375 C60.55132756 34.22868805 63.92678552 35.90947835 67.3125 37.625 C67.95767578 37.94984375 68.60285156 38.2746875 69.26757812 38.609375 C70.84597541 39.40441956 72.42311694 40.20195634 74 41 C74 41.66 74 42.32 74 43 C74.639375 43.22816406 75.27875 43.45632812 75.9375 43.69140625 C80.12777687 45.48189445 84.0314447 47.70518765 88 49.9375 C88.7940625 50.38029297 89.588125 50.82308594 90.40625 51.27929688 C94.30785845 53.46094626 98.18473724 55.66930521 102 58 C100.62299356 60.75401288 98.9485718 61.25614304 96.23046875 62.68359375 C95.23321777 63.21452637 94.2359668 63.74545898 93.20849609 64.29248047 C92.14969238 64.85596191 91.09088867 65.41944336 90 66 C85.76112628 68.33678948 81.53739619 70.70055016 77.3125 73.0625 C76.23677734 73.66126953 75.16105469 74.26003906 74.05273438 74.87695312 C69.41934098 77.46745415 64.8261634 80.06972825 60.35546875 82.93359375 C57 85 57 85 55 85 C55 85.66 55 86.32 55 87 C54.02675781 87.38800781 53.05351562 87.77601563 52.05078125 88.17578125 C47.52203467 90.11569511 43.39037081 92.63224203 39.1875 95.1875 C37.68341021 96.10165094 36.17700801 97.01201149 34.66796875 97.91796875 C34.01078857 98.31781982 33.3536084 98.7176709 32.67651367 99.12963867 C31 100 31 100 29 100 C29 100.66 29 101.32 29 102 C27.58654297 102.55107422 27.58654297 102.55107422 26.14453125 103.11328125 C21.03601519 105.3015426 16.40639447 108.27379716 11.6875 111.1875 C9.90221015 112.28916996 8.11456525 113.38703565 6.32421875 114.48046875 C5.1499231 115.20592896 5.1499231 115.20592896 3.9519043 115.94604492 C2 117 2 117 0 117 C0 78.39 0 39.78 0 0 Z " fill="#FBFBFB" transform="translate(184,165)"/>
<path d="M0 0 C0.66 0.33 1.32 0.66 2 1 C-0.97 3.97 -3.94 6.94 -7 10 C-7.66 9.67 -8.32 9.34 -9 9 C-6.31941902 5.42589203 -3.57410797 2.68058098 0 0 Z " fill="#2C2C2C" transform="translate(53,102)"/>
</svg>
